<svg version="1.1" xmlns="http://www.w3.org/2000/svg" xmlns:xlink="http://www.w3.org/1999/xlink" width="7448.685546875" height="3460"><defs/><g><g transform="translate(-2390,-686) scale(1,1)"><rect fill="#C0C0C0" stroke="none" x="3887" y="703" width="488" height="560" opacity="0.2"/></g><g transform="translate(-2390,-686) scale(1,1)"><rect fill="#ffffff" stroke="none" x="3880" y="696" width="488" height="560"/></g><g transform="translate(-2390,-686) scale(1,1)"><path fill="none" stroke="#000000" d="M 3880 696 L 4368 696 L 4368 1256 L 3880 1256 L 3880 696 Z Z" stroke-miterlimit="10"/></g><g transform="translate(-2390,-686) scale(1,1)"><path fill="none" stroke="#000000" d="M 3880 748 L 4368 748" stroke-miterlimit="10"/></g><g transform="translate(-2390,-686) scale(1,1)"><path fill="none" stroke="#000000" d="M 3880 882 L 4368 882" stroke-miterlimit="10"/></g><g transform="translate(-2390,-686) scale(1,1)"><g><path fill="none" stroke="none"/><text fill="#000000" stroke="none" font-family="Arial" font-size="40px" font-style="normal" font-weight="bold" text-decoration="none" x="4088.443359375" y="742.5">ING</text></g></g><g transform="translate(-2390,-686) scale(1,1)"><g><path fill="none" stroke="none"/><text fill="#000000" stroke="none" font-family="Arial" font-size="40px" font-style="normal" font-weight="normal" text-decoration="none" x="3885" y="792.5">+pWindow: Window</text></g></g><g transform="translate(-2390,-686) scale(1,1)"><g><path fill="none" stroke="none"/><text fill="#000000" stroke="none" font-family="Arial" font-size="40px" font-style="normal" font-weight="normal" text-decoration="none" x="3885" y="834.5">+pGraphics: Graphics</text></g></g><g transform="translate(-2390,-686) scale(1,1)"><g><path fill="none" stroke="none"/><text fill="#000000" stroke="none" font-family="Arial" font-size="40px" font-style="normal" font-weight="normal" text-decoration="none" x="3885" y="876.5">+pTime: Time</text></g></g><g transform="translate(-2390,-686) scale(1,1)"><rect fill="#C0C0C0" stroke="none" x="2407" y="2863" width="416" height="473" opacity="0.2"/></g><g transform="translate(-2390,-686) scale(1,1)"><rect fill="#ffffff" stroke="none" x="2400" y="2856" width="416" height="473"/></g><g transform="translate(-2390,-686) scale(1,1)"><path fill="none" stroke="#000000" d="M 2400 2856 L 2816 2856 L 2816 3329 L 2400 3329 L 2400 2856 Z Z" stroke-miterlimit="10"/></g><g transform="translate(-2390,-686) scale(1,1)"><path fill="none" stroke="#000000" d="M 2400 2898 L 2816 2898" stroke-miterlimit="10"/></g><g transform="translate(-2390,-686) scale(1,1)"><path fill="none" stroke="#000000" d="M 2400 3098 L 2816 3098" stroke-miterlimit="10"/></g><g transform="translate(-2390,-686) scale(1,1)"><g><path fill="none" stroke="none"/><text fill="#000000" stroke="none" font-family="Arial" font-size="30px" font-style="normal" font-weight="bold" text-decoration="none" x="2554.650390625" y="2892.5">Window</text></g></g><g transform="translate(-2390,-686) scale(1,1)"><g><path fill="none" stroke="none"/><text fill="#000000" stroke="none" font-family="Arial" font-size="30px" font-style="normal" font-weight="normal" text-decoration="none" x="2405" y="2932.5">+pING: ING</text></g></g><g transform="translate(-2390,-686) scale(1,1)"><g><path fill="none" stroke="none"/><text fill="#000000" stroke="none" font-family="Arial" font-size="30px" font-style="normal" font-weight="normal" text-decoration="none" x="2405" y="2964.5">+clientWidth: UINT</text></g></g><g transform="translate(-2390,-686) scale(1,1)"><g><path fill="none" stroke="none"/><text fill="#000000" stroke="none" font-family="Arial" font-size="30px" font-style="normal" font-weight="normal" text-decoration="none" x="2405" y="2996.5">+clientHeight: UINT</text></g></g><g transform="translate(-2390,-686) scale(1,1)"><g><path fill="none" stroke="none"/><text fill="#000000" stroke="none" font-family="Arial" font-size="30px" font-style="normal" font-weight="normal" text-decoration="none" x="2405" y="3028.5">+name: LPCWSTR</text></g></g><g transform="translate(-2390,-686) scale(1,1)"><g><path fill="none" stroke="none"/><text fill="#000000" stroke="none" font-family="Arial" font-size="30px" font-style="normal" font-weight="normal" text-decoration="none" x="2405" y="3060.5">+hwnd: HWND</text></g></g><g transform="translate(-2390,-686) scale(1,1)"><g><path fill="none" stroke="none"/><text fill="#000000" stroke="none" font-family="Arial" font-size="30px" font-style="normal" font-weight="normal" text-decoration="none" x="2405" y="3092.5">+isRunning: bool</text></g></g><g transform="translate(-2390,-686) scale(1,1)"><g><path fill="none" stroke="none"/><text fill="#000000" stroke="none" font-family="Arial" font-size="30px" font-style="normal" font-weight="normal" text-decoration="none" x="2405" y="3132.5">+ThisCreateWindow()</text></g></g><g transform="translate(-2390,-686) scale(1,1)"><g><path fill="none" stroke="none"/><text fill="#000000" stroke="none" font-family="Arial" font-size="30px" font-style="normal" font-weight="normal" text-decoration="none" x="2405" y="3164.5">+OnCreate()</text></g></g><g transform="translate(-2390,-686) scale(1,1)"><g><path fill="none" stroke="none"/><text fill="#000000" stroke="none" font-family="Arial" font-size="30px" font-style="normal" font-weight="normal" text-decoration="none" x="2405" y="3196.5">+OnUpdate()</text></g></g><g transform="translate(-2390,-686) scale(1,1)"><g><path fill="none" stroke="none"/><text fill="#000000" stroke="none" font-family="Arial" font-size="30px" font-style="normal" font-weight="normal" text-decoration="none" x="2405" y="3228.5">+OnDestroy()</text></g></g><g transform="translate(-2390,-686) scale(1,1)"><g><path fill="none" stroke="none"/><text fill="#000000" stroke="none" font-family="Arial" font-size="30px" font-style="normal" font-weight="normal" text-decoration="none" x="2405" y="3260.5">+OnResize()</text></g></g><g transform="translate(-2390,-686) scale(1,1)"><g><path fill="none" stroke="none"/><text fill="#000000" stroke="none" font-family="Arial" font-size="30px" font-style="normal" font-weight="normal" text-decoration="none" x="2405" y="3292.5">+Boardcast()</text></g></g><g transform="translate(-2390,-686) scale(1,1)"><path fill="none" stroke="#000000" d="M 2778 2855 L 3923 1257" stroke-miterlimit="10"/></g><g transform="translate(-2390,-686) scale(1,1)"><path fill="#FFFFFF" stroke="none" d="M 3918.005302070018 1278.4255219910328 L 3923 1257 L 3904.3180833334104 1268.6183471140519"/></g><g transform="translate(-2390,-686) scale(1,1)"><path fill="none" stroke="#000000" d="M 3918.005302070018 1278.4255219910328 L 3923 1257 L 3904.3180833334104 1268.6183471140519 L 3918.005302070018 1278.4255219910328" stroke-miterlimit="10"/></g><g transform="translate(-2390,-686) scale(1,1)"><rect fill="#C0C0C0" stroke="none" x="4103" y="2063" width="224" height="153" opacity="0.2"/></g><g transform="translate(-2390,-686) scale(1,1)"><rect fill="#ffffff" stroke="none" x="4096" y="2056" width="224" height="153"/></g><g transform="translate(-2390,-686) scale(1,1)"><path fill="none" stroke="#000000" d="M 4096 2056 L 4320 2056 L 4320 2209 L 4096 2209 L 4096 2056 Z Z" stroke-miterlimit="10"/></g><g transform="translate(-2390,-686) scale(1,1)"><path fill="none" stroke="#000000" d="M 4096 2098 L 4320 2098" stroke-miterlimit="10"/></g><g transform="translate(-2390,-686) scale(1,1)"><path fill="none" stroke="#000000" d="M 4096 2138 L 4320 2138" stroke-miterlimit="10"/></g><g transform="translate(-2390,-686) scale(1,1)"><g><path fill="none" stroke="none"/><text fill="#000000" stroke="none" font-family="Arial" font-size="30px" font-style="normal" font-weight="bold" text-decoration="none" x="4175.22412109375" y="2092.5">Time</text></g></g><g transform="translate(-2390,-686) scale(1,1)"><g><path fill="none" stroke="none"/><text fill="#000000" stroke="none" font-family="Arial" font-size="30px" font-style="normal" font-weight="normal" text-decoration="none" x="4101" y="2132.5">+pING: ING</text></g></g><g transform="translate(-2390,-686) scale(1,1)"><g><path fill="none" stroke="none"/><text fill="#000000" stroke="none" font-family="Arial" font-size="30px" font-style="normal" font-weight="normal" text-decoration="none" x="4101" y="2172.5">+Start()</text></g></g><g transform="translate(-2390,-686) scale(1,1)"><g><path fill="none" stroke="none"/><text fill="#000000" stroke="none" font-family="Arial" font-size="30px" font-style="normal" font-weight="normal" text-decoration="none" x="4101" y="2204.5">+Get()</text></g></g><g transform="translate(-2390,-686) scale(1,1)"><path fill="none" stroke="#000000" d="M 4202 2055 L 4144 1257" stroke-miterlimit="10"/></g><g transform="translate(-2390,-686) scale(1,1)"><path fill="#FFFFFF" stroke="none" d="M 4153.870280388311 1276.6615758538355 L 4144 1257 L 4137.076508579727 1277.882175809848"/></g><g transform="translate(-2390,-686) scale(1,1)"><path fill="none" stroke="#000000" d="M 4153.870280388311 1276.6615758538355 L 4144 1257 L 4137.076508579727 1277.882175809848 L 4153.870280388311 1276.6615758538355" stroke-miterlimit="10"/></g><g transform="translate(-2390,-686) scale(1,1)"><rect fill="#C0C0C0" stroke="none" x="6391" y="1871" width="544" height="416" opacity="0.2"/></g><g transform="translate(-2390,-686) scale(1,1)"><rect fill="#ffffff" stroke="none" x="6384" y="1864" width="544" height="416"/></g><g transform="translate(-2390,-686) scale(1,1)"><path fill="none" stroke="#000000" d="M 6384 1864 L 6928 1864 L 6928 2280 L 6384 2280 L 6384 1864 Z Z" stroke-miterlimit="10"/></g><g transform="translate(-2390,-686) scale(1,1)"><path fill="none" stroke="#000000" d="M 6384 1906 L 6928 1906" stroke-miterlimit="10"/></g><g transform="translate(-2390,-686) scale(1,1)"><path fill="none" stroke="#000000" d="M 6384 2202 L 6928 2202" stroke-miterlimit="10"/></g><g transform="translate(-2390,-686) scale(1,1)"><g><path fill="none" stroke="none"/><text fill="#000000" stroke="none" font-family="Arial" font-size="30px" font-style="normal" font-weight="bold" text-decoration="none" x="6595.97802734375" y="1900.5">Graphics</text></g></g><g transform="translate(-2390,-686) scale(1,1)"><g><path fill="none" stroke="none"/><text fill="#000000" stroke="none" font-family="Arial" font-size="30px" font-style="normal" font-weight="normal" text-decoration="none" x="6389" y="1940.5">+pING: ING</text></g></g><g transform="translate(-2390,-686) scale(1,1)"><g><path fill="none" stroke="none"/><text fill="#000000" stroke="none" font-family="Arial" font-size="30px" font-style="normal" font-weight="normal" text-decoration="none" x="6389" y="1972.5">+pDeviceContext: DeviceContext</text></g></g><g transform="translate(-2390,-686) scale(1,1)"><g><path fill="none" stroke="none"/><text fill="#000000" stroke="none" font-family="Arial" font-size="30px" font-style="normal" font-weight="normal" text-decoration="none" x="6389" y="2004.5">+pSwapChain: SwapChain</text></g></g><g transform="translate(-2390,-686) scale(1,1)"><g><path fill="none" stroke="none"/><text fill="#000000" stroke="none" font-family="Arial" font-size="30px" font-style="normal" font-weight="normal" text-decoration="none" x="6389" y="2036.5">+pRenderSystem: RenderSystem</text></g></g><g transform="translate(-2390,-686) scale(1,1)"><g><path fill="none" stroke="none"/><text fill="#000000" stroke="none" font-family="Arial" font-size="30px" font-style="normal" font-weight="normal" text-decoration="none" x="6389" y="2068.5">+pd3dDevice: ID3D11Device</text></g></g><g transform="translate(-2390,-686) scale(1,1)"><g><path fill="none" stroke="none"/><text fill="#000000" stroke="none" font-family="Arial" font-size="30px" font-style="normal" font-weight="normal" text-decoration="none" x="6389" y="2100.5">+featureLevel: D3D_FEATURE_LEVEL</text></g></g><g transform="translate(-2390,-686) scale(1,1)"><g><path fill="none" stroke="none"/><text fill="#000000" stroke="none" font-family="Arial" font-size="30px" font-style="normal" font-weight="normal" text-decoration="none" x="6389" y="2132.5">+pdxgiDevice: IDXGIDevice</text></g></g><g transform="translate(-2390,-686) scale(1,1)"><g><path fill="none" stroke="none"/><text fill="#000000" stroke="none" font-family="Arial" font-size="30px" font-style="normal" font-weight="normal" text-decoration="none" x="6389" y="2164.5">+pdxgiAdapter: IDXGIAdapter</text></g></g><g transform="translate(-2390,-686) scale(1,1)"><g><path fill="none" stroke="none"/><text fill="#000000" stroke="none" font-family="Arial" font-size="30px" font-style="normal" font-weight="normal" text-decoration="none" x="6389" y="2196.5">+pdxgiFactory: IDXGIFactory</text></g></g><g transform="translate(-2390,-686) scale(1,1)"><g><path fill="none" stroke="none"/><text fill="#000000" stroke="none" font-family="Arial" font-size="30px" font-style="normal" font-weight="normal" text-decoration="none" x="6389" y="2236.5">+SetScreenSize()</text></g></g><g transform="translate(-2390,-686) scale(1,1)"><g><path fill="none" stroke="none"/><text fill="#000000" stroke="none" font-family="Arial" font-size="30px" font-style="normal" font-weight="normal" text-decoration="none" x="6389" y="2268.5">+CreateShader()</text></g></g><g transform="translate(-2390,-686) scale(1,1)"><path fill="none" stroke="#000000" d="M 6383 1954 L 4369 1082" stroke-miterlimit="10"/></g><g transform="translate(-2390,-686) scale(1,1)"><path fill="#FFFFFF" stroke="none" d="M 4390.997218395556 1082.3498326145852 L 4369 1082 L 4384.307013280685 1097.8017513087923"/></g><g transform="translate(-2390,-686) scale(1,1)"><path fill="none" stroke="#000000" d="M 4390.997218395556 1082.3498326145852 L 4369 1082 L 4384.307013280685 1097.8017513087923 L 4390.997218395556 1082.3498326145852" stroke-miterlimit="10"/></g><g transform="translate(-2390,-686) scale(1,1)"><rect fill="#C0C0C0" stroke="none" x="6479" y="2999" width="302.2177734375" height="123" opacity="0.2"/></g><g transform="translate(-2390,-686) scale(1,1)"><rect fill="#ffffff" stroke="none" x="6472" y="2992" width="302.2177734375" height="123"/></g><g transform="translate(-2390,-686) scale(1,1)"><path fill="none" stroke="#000000" d="M 6472 2992 L 6774.2177734375 2992 L 6774.2177734375 3115 L 6472 3115 L 6472 2992 Z Z" stroke-miterlimit="10"/></g><g transform="translate(-2390,-686) scale(1,1)"><path fill="none" stroke="#000000" d="M 6472 3034 L 6774.2177734375 3034" stroke-miterlimit="10"/></g><g transform="translate(-2390,-686) scale(1,1)"><path fill="none" stroke="#000000" d="M 6472 3106 L 6774.2177734375 3106" stroke-miterlimit="10"/></g><g transform="translate(-2390,-686) scale(1,1)"><g><path fill="none" stroke="none"/><text fill="#000000" stroke="none" font-family="Arial" font-size="30px" font-style="normal" font-weight="bold" text-decoration="none" x="6586.42919921875" y="3028.5">Mesh</text></g></g><g transform="translate(-2390,-686) scale(1,1)"><g><path fill="none" stroke="none"/><text fill="#000000" stroke="none" font-family="Arial" font-size="30px" font-style="normal" font-weight="normal" text-decoration="none" x="6477" y="3068.5">+buffers: MeshBuffers</text></g></g><g transform="translate(-2390,-686) scale(1,1)"><g><path fill="none" stroke="none"/><text fill="#000000" stroke="none" font-family="Arial" font-size="30px" font-style="normal" font-weight="normal" text-decoration="none" x="6477" y="3100.5">+pData: MeshData</text></g></g><g transform="translate(-2390,-686) scale(1,1)"><path fill="none" stroke="#000000" d="M 6625 2991 L 6649 2281" stroke-miterlimit="10"/></g><g transform="translate(-2390,-686) scale(1,1)"><path fill="#FFFFFF" stroke="none" d="M 6656.727567820501 2301.598172141711 L 6649 2281 L 6639.899108406504 2301.029322809407"/></g><g transform="translate(-2390,-686) scale(1,1)"><path fill="none" stroke="#000000" d="M 6656.727567820501 2301.598172141711 L 6649 2281 L 6639.899108406504 2301.029322809407 L 6656.727567820501 2301.598172141711" stroke-miterlimit="10"/></g><g transform="translate(-2390,-686) scale(1,1)"><rect fill="#C0C0C0" stroke="none" x="6903" y="3111" width="403.4091796875" height="128" opacity="0.2"/></g><g transform="translate(-2390,-686) scale(1,1)"><rect fill="#ffffff" stroke="none" x="6896" y="3104" width="403.4091796875" height="128"/></g><g transform="translate(-2390,-686) scale(1,1)"><path fill="none" stroke="#000000" d="M 6896 3104 L 7299.4091796875 3104 L 7299.4091796875 3232 L 6896 3232 L 6896 3104 Z Z" stroke-miterlimit="10"/></g><g transform="translate(-2390,-686) scale(1,1)"><path fill="none" stroke="#000000" d="M 6896 3146 L 7299.4091796875 3146" stroke-miterlimit="10"/></g><g transform="translate(-2390,-686) scale(1,1)"><path fill="none" stroke="#000000" d="M 6896 3218 L 7299.4091796875 3218" stroke-miterlimit="10"/></g><g transform="translate(-2390,-686) scale(1,1)"><g><path fill="none" stroke="none"/><text fill="#000000" stroke="none" font-family="Arial" font-size="30px" font-style="normal" font-weight="bold" text-decoration="none" x="7013.7763671875" y="3140.5">MeshBuffers</text></g></g><g transform="translate(-2390,-686) scale(1,1)"><g><path fill="none" stroke="none"/><text fill="#000000" stroke="none" font-family="Arial" font-size="30px" font-style="normal" font-weight="normal" text-decoration="none" x="6901" y="3180.5">+pVertexBuffer: ID3D11Buffer</text></g></g><g transform="translate(-2390,-686) scale(1,1)"><g><path fill="none" stroke="none"/><text fill="#000000" stroke="none" font-family="Arial" font-size="30px" font-style="normal" font-weight="normal" text-decoration="none" x="6901" y="3212.5">+pIndexBuffer: ID3D11Buffer</text></g></g><g transform="translate(-2390,-686) scale(1,1)"><path fill="none" stroke="#000000" d="M 7071 3103 L 6740 2281" stroke-miterlimit="10"/></g><g transform="translate(-2390,-686) scale(1,1)"><path fill="#FFFFFF" stroke="none" d="M 6755.401776380512 2296.7094011446875 L 6740 2281 L 6739.782476443191 2302.9989245987667"/></g><g transform="translate(-2390,-686) scale(1,1)"><path fill="none" stroke="#000000" d="M 6755.401776380512 2296.7094011446875 L 6740 2281 L 6739.782476443191 2302.9989245987667 L 6755.401776380512 2296.7094011446875" stroke-miterlimit="10"/></g><g transform="translate(-2390,-686) scale(1,1)"><rect fill="#C0C0C0" stroke="none" x="6055" y="3127" width="348.3310546875" height="136" opacity="0.2"/></g><g transform="translate(-2390,-686) scale(1,1)"><rect fill="#ffffff" stroke="none" x="6048" y="3120" width="348.3310546875" height="136"/></g><g transform="translate(-2390,-686) scale(1,1)"><path fill="none" stroke="#000000" d="M 6048 3120 L 6396.3310546875 3120 L 6396.3310546875 3256 L 6048 3256 L 6048 3120 Z Z" stroke-miterlimit="10"/></g><g transform="translate(-2390,-686) scale(1,1)"><path fill="none" stroke="#000000" d="M 6048 3162 L 6396.3310546875 3162" stroke-miterlimit="10"/></g><g transform="translate(-2390,-686) scale(1,1)"><path fill="none" stroke="#000000" d="M 6048 3234 L 6396.3310546875 3234" stroke-miterlimit="10"/></g><g transform="translate(-2390,-686) scale(1,1)"><g><path fill="none" stroke="none"/><text fill="#000000" stroke="none" font-family="Arial" font-size="30px" font-style="normal" font-weight="bold" text-decoration="none" x="6153.80126953125" y="3156.5">MeshData</text></g></g><g transform="translate(-2390,-686) scale(1,1)"><g><path fill="none" stroke="none"/><text fill="#000000" stroke="none" font-family="Arial" font-size="30px" font-style="normal" font-weight="normal" text-decoration="none" x="6053" y="3196.5">+vertices: vector&lt;Vertex&gt;</text></g></g><g transform="translate(-2390,-686) scale(1,1)"><g><path fill="none" stroke="none"/><text fill="#000000" stroke="none" font-family="Arial" font-size="30px" font-style="normal" font-weight="normal" text-decoration="none" x="6053" y="3228.5">+indices: vector&lt;UINT&gt;</text></g></g><g transform="translate(-2390,-686) scale(1,1)"><path fill="none" stroke="#000000" d="M 6249 3119 L 6575 2281" stroke-miterlimit="10"/></g><g transform="translate(-2390,-686) scale(1,1)"><path fill="#FFFFFF" stroke="none" d="M 6575.47720032891 2302.994823933055 L 6575 2281 L 6559.784742434489 2296.890120742624"/></g><g transform="translate(-2390,-686) scale(1,1)"><path fill="none" stroke="#000000" d="M 6575.47720032891 2302.994823933055 L 6575 2281 L 6559.784742434489 2296.890120742624 L 6575.47720032891 2302.994823933055" stroke-miterlimit="10"/></g><g transform="translate(-2390,-686) scale(1,1)"><rect fill="#C0C0C0" stroke="none" x="5135" y="3207" width="600" height="352" opacity="0.2"/></g><g transform="translate(-2390,-686) scale(1,1)"><rect fill="#ffffff" stroke="none" x="5128" y="3200" width="600" height="352"/></g><g transform="translate(-2390,-686) scale(1,1)"><path fill="none" stroke="#000000" d="M 5128 3200 L 5728 3200 L 5728 3552 L 5128 3552 L 5128 3200 Z Z" stroke-miterlimit="10"/></g><g transform="translate(-2390,-686) scale(1,1)"><path fill="none" stroke="#000000" d="M 5128 3242 L 5728 3242" stroke-miterlimit="10"/></g><g transform="translate(-2390,-686) scale(1,1)"><path fill="none" stroke="#000000" d="M 5128 3346 L 5728 3346" stroke-miterlimit="10"/></g><g transform="translate(-2390,-686) scale(1,1)"><g><path fill="none" stroke="none"/><text fill="#000000" stroke="none" font-family="Arial" font-size="30px" font-style="normal" font-weight="bold" text-decoration="none" x="5330.4560546875" y="3236.5">DeviceContext</text></g></g><g transform="translate(-2390,-686) scale(1,1)"><g><path fill="none" stroke="none"/><text fill="#000000" stroke="none" font-family="Arial" font-size="30px" font-style="normal" font-weight="normal" text-decoration="none" x="5133" y="3276.5">+pImmContext: ID3D11DeviceContext</text></g></g><g transform="translate(-2390,-686) scale(1,1)"><g><path fill="none" stroke="none"/><text fill="#000000" stroke="none" font-family="Arial" font-size="30px" font-style="normal" font-weight="normal" text-decoration="none" x="5133" y="3308.5">+screenViewport: D3D11_VIEWPORT</text></g></g><g transform="translate(-2390,-686) scale(1,1)"><g><path fill="none" stroke="none"/><text fill="#000000" stroke="none" font-family="Arial" font-size="30px" font-style="normal" font-weight="normal" text-decoration="none" x="5133" y="3340.5">+pGraphics: Graphics</text></g></g><g transform="translate(-2390,-686) scale(1,1)"><g><path fill="none" stroke="none"/><text fill="#000000" stroke="none" font-family="Arial" font-size="30px" font-style="normal" font-weight="normal" text-decoration="none" x="5133" y="3380.5">+ClearRenderTargetView()</text></g></g><g transform="translate(-2390,-686) scale(1,1)"><g><path fill="none" stroke="none"/><text fill="#000000" stroke="none" font-family="Arial" font-size="30px" font-style="normal" font-weight="normal" text-decoration="none" x="5133" y="3412.5">+DrawIndicesList()</text></g></g><g transform="translate(-2390,-686) scale(1,1)"><g><path fill="none" stroke="none"/><text fill="#000000" stroke="none" font-family="Arial" font-size="30px" font-style="normal" font-weight="normal" text-decoration="none" x="5133" y="3444.5">+SetViewPortSize()</text></g></g><g transform="translate(-2390,-686) scale(1,1)"><g><path fill="none" stroke="none"/><text fill="#000000" stroke="none" font-family="Arial" font-size="30px" font-style="normal" font-weight="normal" text-decoration="none" x="5133" y="3476.5">+SetShader()</text></g></g><g transform="translate(-2390,-686) scale(1,1)"><g><path fill="none" stroke="none"/><text fill="#000000" stroke="none" font-family="Arial" font-size="30px" font-style="normal" font-weight="normal" text-decoration="none" x="5133" y="3508.5">+SetRSState()</text></g></g><g transform="translate(-2390,-686) scale(1,1)"><g><path fill="none" stroke="none"/><text fill="#000000" stroke="none" font-family="Arial" font-size="30px" font-style="normal" font-weight="normal" text-decoration="none" x="5133" y="3540.5">+RegisterRSState()</text></g></g><g transform="translate(-2390,-686) scale(1,1)"><path fill="none" stroke="#000000" d="M 5595 3199 L 6459 2281" stroke-miterlimit="10"/></g><g transform="translate(-2390,-686) scale(1,1)"><path fill="#FFFFFF" stroke="none" d="M 6451.20046440858 2301.5710292537387 L 6459 2281 L 6438.938981211895 2290.0308097745065"/></g><g transform="translate(-2390,-686) scale(1,1)"><path fill="none" stroke="#000000" d="M 6451.20046440858 2301.5710292537387 L 6459 2281 L 6438.938981211895 2290.0308097745065 L 6451.20046440858 2301.5710292537387" stroke-miterlimit="10"/></g><g transform="translate(-2390,-686) scale(1,1)"><rect fill="#C0C0C0" stroke="none" x="7503" y="1551" width="651.8759765625" height="345" opacity="0.2"/></g><g transform="translate(-2390,-686) scale(1,1)"><rect fill="#ffffff" stroke="none" x="7496" y="1544" width="651.8759765625" height="345"/></g><g transform="translate(-2390,-686) scale(1,1)"><path fill="none" stroke="#000000" d="M 7496 1544 L 8147.8759765625 1544 L 8147.8759765625 1889 L 7496 1889 L 7496 1544 Z Z" stroke-miterlimit="10"/></g><g transform="translate(-2390,-686) scale(1,1)"><path fill="none" stroke="#000000" d="M 7496 1586 L 8147.8759765625 1586" stroke-miterlimit="10"/></g><g transform="translate(-2390,-686) scale(1,1)"><path fill="none" stroke="#000000" d="M 7496 1818 L 8147.8759765625 1818" stroke-miterlimit="10"/></g><g transform="translate(-2390,-686) scale(1,1)"><g><path fill="none" stroke="none"/><text fill="#000000" stroke="none" font-family="Arial" font-size="30px" font-style="normal" font-weight="bold" text-decoration="none" x="7745.22412109375" y="1580.5">SwapChain</text></g></g><g transform="translate(-2390,-686) scale(1,1)"><g><path fill="none" stroke="none"/><text fill="#000000" stroke="none" font-family="Arial" font-size="30px" font-style="normal" font-weight="normal" text-decoration="none" x="7501" y="1620.5">+pGraphics: Graphics</text></g></g><g transform="translate(-2390,-686) scale(1,1)"><g><path fill="none" stroke="none"/><text fill="#000000" stroke="none" font-family="Arial" font-size="30px" font-style="normal" font-weight="normal" text-decoration="none" x="7501" y="1652.5">+pRenderTargetView: ID3D11RenderTargetView</text></g></g><g transform="translate(-2390,-686) scale(1,1)"><g><path fill="none" stroke="none"/><text fill="#000000" stroke="none" font-family="Arial" font-size="30px" font-style="normal" font-weight="normal" text-decoration="none" x="7501" y="1684.5">+pDepthStencilView: ID3D11DepthStencilView</text></g></g><g transform="translate(-2390,-686) scale(1,1)"><g><path fill="none" stroke="none"/><text fill="#000000" stroke="none" font-family="Arial" font-size="30px" font-style="normal" font-weight="normal" text-decoration="none" x="7501" y="1716.5">+clientWidth: UINT</text></g></g><g transform="translate(-2390,-686) scale(1,1)"><g><path fill="none" stroke="none"/><text fill="#000000" stroke="none" font-family="Arial" font-size="30px" font-style="normal" font-weight="normal" text-decoration="none" x="7501" y="1748.5">+clientHeight: UINT</text></g></g><g transform="translate(-2390,-686) scale(1,1)"><g><path fill="none" stroke="none"/><text fill="#000000" stroke="none" font-family="Arial" font-size="30px" font-style="normal" font-weight="normal" text-decoration="none" x="7501" y="1780.5">+hwnd: HWND</text></g></g><g transform="translate(-2390,-686) scale(1,1)"><g><path fill="none" stroke="none"/><text fill="#000000" stroke="none" font-family="Arial" font-size="30px" font-style="normal" font-weight="normal" text-decoration="none" x="7501" y="1812.5">+pSwapChain: IDXGISwapChain</text></g></g><g transform="translate(-2390,-686) scale(1,1)"><g><path fill="none" stroke="none"/><text fill="#000000" stroke="none" font-family="Arial" font-size="30px" font-style="normal" font-weight="normal" text-decoration="none" x="7501" y="1852.5">+Resize()</text></g></g><g transform="translate(-2390,-686) scale(1,1)"><g><path fill="none" stroke="none"/><text fill="#000000" stroke="none" font-family="Arial" font-size="30px" font-style="normal" font-weight="normal" text-decoration="none" x="7501" y="1884.5">+Present()</text></g></g><g transform="translate(-2390,-686) scale(1,1)"><path fill="none" stroke="#000000" d="M 7495 1816 L 6929 1989" stroke-miterlimit="10"/></g><g transform="translate(-2390,-686) scale(1,1)"><path fill="#FFFFFF" stroke="none" d="M 6945.976725854331 1975.0074741641506 L 6929 1989 L 6950.898567878399 1991.110148069485"/></g><g transform="translate(-2390,-686) scale(1,1)"><path fill="none" stroke="#000000" d="M 6945.976725854331 1975.0074741641506 L 6929 1989 L 6950.898567878399 1991.110148069485 L 6945.976725854331 1975.0074741641506" stroke-miterlimit="10"/></g><g transform="translate(-2390,-686) scale(1,1)"><rect fill="#C0C0C0" stroke="none" x="8583" y="2359" width="416" height="528" opacity="0.2"/></g><g transform="translate(-2390,-686) scale(1,1)"><rect fill="#ffffff" stroke="none" x="8576" y="2352" width="416" height="528"/></g><g transform="translate(-2390,-686) scale(1,1)"><path fill="none" stroke="#000000" d="M 8576 2352 L 8992 2352 L 8992 2880 L 8576 2880 L 8576 2352 Z Z" stroke-miterlimit="10"/></g><g transform="translate(-2390,-686) scale(1,1)"><path fill="none" stroke="#000000" d="M 8576 2394 L 8992 2394" stroke-miterlimit="10"/></g><g transform="translate(-2390,-686) scale(1,1)"><path fill="none" stroke="#000000" d="M 8576 2434 L 8992 2434" stroke-miterlimit="10"/></g><g transform="translate(-2390,-686) scale(1,1)"><g><path fill="none" stroke="none"/><text fill="#000000" stroke="none" font-family="Arial" font-size="30px" font-style="normal" font-weight="bold" text-decoration="none" x="8684.79345703125" y="2388.5">RenderSystem</text></g></g><g transform="translate(-2390,-686) scale(1,1)"><g><path fill="none" stroke="none"/><text fill="#000000" stroke="none" font-family="Arial" font-size="30px" font-style="normal" font-weight="normal" text-decoration="none" x="8581" y="2428.5">+pGraphics: pGraphics</text></g></g><g transform="translate(-2390,-686) scale(1,1)"><g><path fill="none" stroke="none"/><text fill="#000000" stroke="none" font-family="Arial" font-size="30px" font-style="normal" font-weight="normal" text-decoration="none" x="8581" y="2468.5">+CreateRenderer()</text></g></g><g transform="translate(-2390,-686) scale(1,1)"><path fill="none" stroke="#000000" d="M 8575 2563 L 6929 2142" stroke-miterlimit="10"/></g><g transform="translate(-2390,-686) scale(1,1)"><path fill="#FFFFFF" stroke="none" d="M 6950.777646602228 2138.880046720147 L 6929 2142 L 6946.6052617118885 2155.192981469551"/></g><g transform="translate(-2390,-686) scale(1,1)"><path fill="none" stroke="#000000" d="M 6950.777646602228 2138.880046720147 L 6929 2142 L 6946.6052617118885 2155.192981469551 L 6950.777646602228 2138.880046720147" stroke-miterlimit="10"/></g><g transform="translate(-2390,-686) scale(1,1)"><rect fill="#C0C0C0" stroke="none" x="9319" y="2711" width="516.685546875" height="473" opacity="0.2"/></g><g transform="translate(-2390,-686) scale(1,1)"><rect fill="#ffffff" stroke="none" x="9312" y="2704" width="516.685546875" height="473"/></g><g transform="translate(-2390,-686) scale(1,1)"><path fill="none" stroke="#000000" d="M 9312 2704 L 9828.685546875 2704 L 9828.685546875 3177 L 9312 3177 L 9312 2704 Z Z" stroke-miterlimit="10"/></g><g transform="translate(-2390,-686) scale(1,1)"><path fill="none" stroke="#000000" d="M 9312 2746 L 9828.685546875 2746" stroke-miterlimit="10"/></g><g transform="translate(-2390,-686) scale(1,1)"><path fill="none" stroke="#000000" d="M 9312 2914 L 9828.685546875 2914" stroke-miterlimit="10"/></g><g transform="translate(-2390,-686) scale(1,1)"><g><path fill="none" stroke="none"/><text fill="#000000" stroke="none" font-family="Arial" font-size="30px" font-style="normal" font-weight="bold" text-decoration="none" x="9507.80859375" y="2740.5">Renderer</text></g></g><g transform="translate(-2390,-686) scale(1,1)"><g><path fill="none" stroke="none"/><text fill="#000000" stroke="none" font-family="Arial" font-size="30px" font-style="normal" font-weight="normal" text-decoration="none" x="9317" y="2780.5">+pSystem: RenderSystem</text></g></g><g transform="translate(-2390,-686) scale(1,1)"><g><path fill="none" stroke="none"/><text fill="#000000" stroke="none" font-family="Arial" font-size="30px" font-style="normal" font-weight="normal" text-decoration="none" x="9317" y="2812.5">+pMesh: Mesh</text></g></g><g transform="translate(-2390,-686) scale(1,1)"><g><path fill="none" stroke="none"/><text fill="#000000" stroke="none" font-family="Arial" font-size="30px" font-style="normal" font-weight="normal" text-decoration="none" x="9317" y="2844.5">+pMaterial: Material</text></g></g><g transform="translate(-2390,-686) scale(1,1)"><g><path fill="none" stroke="none"/><text fill="#000000" stroke="none" font-family="Arial" font-size="30px" font-style="normal" font-weight="normal" text-decoration="none" x="9317" y="2876.5">+pSolidRSState: RasterizerState</text></g></g><g transform="translate(-2390,-686) scale(1,1)"><g><path fill="none" stroke="none"/><text fill="#000000" stroke="none" font-family="Arial" font-size="30px" font-style="normal" font-weight="normal" text-decoration="none" x="9317" y="2908.5">+pWireframeRSState: RasterizerState</text></g></g><g transform="translate(-2390,-686) scale(1,1)"><g><path fill="none" stroke="none"/><text fill="#000000" stroke="none" font-family="Arial" font-size="30px" font-style="normal" font-weight="normal" text-decoration="none" x="9317" y="2948.5">+RegisterMesh()</text></g></g><g transform="translate(-2390,-686) scale(1,1)"><g><path fill="none" stroke="none"/><text fill="#000000" stroke="none" font-family="Arial" font-size="30px" font-style="normal" font-weight="normal" text-decoration="none" x="9317" y="2980.5">+DrawMesh()</text></g></g><g transform="translate(-2390,-686) scale(1,1)"><g><path fill="none" stroke="none"/><text fill="#000000" stroke="none" font-family="Arial" font-size="30px" font-style="normal" font-weight="normal" text-decoration="none" x="9317" y="3012.5">+SetMaterial()</text></g></g><g transform="translate(-2390,-686) scale(1,1)"><g><path fill="none" stroke="none"/><text fill="#000000" stroke="none" font-family="Arial" font-size="30px" font-style="normal" font-weight="normal" text-decoration="none" x="9317" y="3044.5">+SetShader()</text></g></g><g transform="translate(-2390,-686) scale(1,1)"><g><path fill="none" stroke="none"/><text fill="#000000" stroke="none" font-family="Arial" font-size="30px" font-style="normal" font-weight="normal" text-decoration="none" x="9317" y="3076.5">+RegisterMaterial()</text></g></g><g transform="translate(-2390,-686) scale(1,1)"><g><path fill="none" stroke="none"/><text fill="#000000" stroke="none" font-family="Arial" font-size="30px" font-style="normal" font-weight="normal" text-decoration="none" x="9317" y="3108.5">+Draw()</text></g></g><g transform="translate(-2390,-686) scale(1,1)"><g><path fill="none" stroke="none"/><text fill="#000000" stroke="none" font-family="Arial" font-size="30px" font-style="normal" font-weight="normal" text-decoration="none" x="9317" y="3140.5">+UseSolidRSState()</text></g></g><g transform="translate(-2390,-686) scale(1,1)"><g><path fill="none" stroke="none"/><text fill="#000000" stroke="none" font-family="Arial" font-size="30px" font-style="normal" font-weight="normal" text-decoration="none" x="9317" y="3172.5">+UseWireframeRSState()</text></g></g><g transform="translate(-2390,-686) scale(1,1)"><path fill="none" stroke="#000000" d="M 9311 2833 L 8993 2702" stroke-miterlimit="10"/></g><g transform="translate(-2390,-686) scale(1,1)"><path fill="#FFFFFF" stroke="none" d="M 9014.99995886098 2701.95745455153 L 8993 2702 L 9008.586404271546 2717.5262359213025"/></g><g transform="translate(-2390,-686) scale(1,1)"><path fill="none" stroke="#000000" d="M 9014.99995886098 2701.95745455153 L 8993 2702 L 9008.586404271546 2717.5262359213025 L 9014.99995886098 2701.95745455153" stroke-miterlimit="10"/></g><g transform="translate(-2390,-686) scale(1,1)"><rect fill="#C0C0C0" stroke="none" x="7655" y="3919" width="539.625" height="155" opacity="0.2"/></g><g transform="translate(-2390,-686) scale(1,1)"><rect fill="#ffffff" stroke="none" x="7648" y="3912" width="539.625" height="155"/></g><g transform="translate(-2390,-686) scale(1,1)"><path fill="none" stroke="#000000" d="M 7648 3912 L 8187.625 3912 L 8187.625 4067 L 7648 4067 L 7648 3912 Z Z" stroke-miterlimit="10"/></g><g transform="translate(-2390,-686) scale(1,1)"><path fill="none" stroke="#000000" d="M 7648 3954 L 8187.625 3954" stroke-miterlimit="10"/></g><g transform="translate(-2390,-686) scale(1,1)"><path fill="none" stroke="#000000" d="M 7648 4058 L 8187.625 4058" stroke-miterlimit="10"/></g><g transform="translate(-2390,-686) scale(1,1)"><g><path fill="none" stroke="none"/><text fill="#000000" stroke="none" font-family="Arial" font-size="30px" font-style="normal" font-weight="bold" text-decoration="none" x="7864.462890625" y="3948.5">Material</text></g></g><g transform="translate(-2390,-686) scale(1,1)"><g><path fill="none" stroke="none"/><text fill="#000000" stroke="none" font-family="Arial" font-size="30px" font-style="normal" font-weight="normal" text-decoration="none" x="7653" y="3988.5">+pShader: Shader</text></g></g><g transform="translate(-2390,-686) scale(1,1)"><g><path fill="none" stroke="none"/><text fill="#000000" stroke="none" font-family="Arial" font-size="30px" font-style="normal" font-weight="normal" text-decoration="none" x="7653" y="4020.5">+cbInputs: vector&lt;ConstantBufferInput&gt;</text></g></g><g transform="translate(-2390,-686) scale(1,1)"><g><path fill="none" stroke="none"/><text fill="#000000" stroke="none" font-family="Arial" font-size="30px" font-style="normal" font-weight="normal" text-decoration="none" x="7653" y="4052.5">+cbs: vector&lt;ID3D11Buffer*&gt;</text></g></g><g transform="translate(-2390,-686) scale(1,1)"><path fill="none" stroke="#000000" d="M 7866 3911 L 6793 2281" stroke-miterlimit="10"/></g><g transform="translate(-2390,-686) scale(1,1)"><path fill="#FFFFFF" stroke="none" d="M 6811.207892958003 2293.3479809697747 L 6793 2281 L 6797.143583504033 2302.6062656594127"/></g><g transform="translate(-2390,-686) scale(1,1)"><path fill="none" stroke="#000000" d="M 6811.207892958003 2293.3479809697747 L 6793 2281 L 6797.143583504033 2302.6062656594127 L 6811.207892958003 2293.3479809697747" stroke-miterlimit="10"/></g><g transform="translate(-2390,-686) scale(1,1)"><rect fill="#C0C0C0" stroke="none" x="8279" y="3919" width="400" height="123" opacity="0.2"/></g><g transform="translate(-2390,-686) scale(1,1)"><rect fill="#ffffff" stroke="none" x="8272" y="3912" width="400" height="123"/></g><g transform="translate(-2390,-686) scale(1,1)"><path fill="none" stroke="#000000" d="M 8272 3912 L 8672 3912 L 8672 4035 L 8272 4035 L 8272 3912 Z Z" stroke-miterlimit="10"/></g><g transform="translate(-2390,-686) scale(1,1)"><path fill="none" stroke="#000000" d="M 8272 3954 L 8672 3954" stroke-miterlimit="10"/></g><g transform="translate(-2390,-686) scale(1,1)"><path fill="none" stroke="#000000" d="M 8272 4026 L 8672 4026" stroke-miterlimit="10"/></g><g transform="translate(-2390,-686) scale(1,1)"><g><path fill="none" stroke="none"/><text fill="#000000" stroke="none" font-family="Arial" font-size="30px" font-style="normal" font-weight="bold" text-decoration="none" x="8338.85302734375" y="3948.5">ConstantBufferInput</text></g></g><g transform="translate(-2390,-686) scale(1,1)"><g><path fill="none" stroke="none"/><text fill="#000000" stroke="none" font-family="Arial" font-size="30px" font-style="normal" font-weight="normal" text-decoration="none" x="8277" y="3988.5">+size: UINT</text></g></g><g transform="translate(-2390,-686) scale(1,1)"><g><path fill="none" stroke="none"/><text fill="#000000" stroke="none" font-family="Arial" font-size="30px" font-style="normal" font-weight="normal" text-decoration="none" x="8277" y="4020.5">+pointer: void*</text></g></g><g transform="translate(-2390,-686) scale(1,1)"><path fill="none" stroke="#000000" d="M 8413 3911 L 6856 2281" stroke-miterlimit="10"/></g><g transform="translate(-2390,-686) scale(1,1)"><path fill="#FFFFFF" stroke="none" d="M 6876.127227716776 2289.8822691040655 L 6856 2281 L 6863.95138648921 2301.5128119208266"/></g><g transform="translate(-2390,-686) scale(1,1)"><path fill="none" stroke="#000000" d="M 6876.127227716776 2289.8822691040655 L 6856 2281 L 6863.95138648921 2301.5128119208266 L 6876.127227716776 2289.8822691040655" stroke-miterlimit="10"/></g><g transform="translate(-2390,-686) scale(1,1)"><rect fill="#C0C0C0" stroke="none" x="7007" y="3919" width="558.0087890625" height="224" opacity="0.2"/></g><g transform="translate(-2390,-686) scale(1,1)"><rect fill="#ffffff" stroke="none" x="7000" y="3912" width="558.0087890625" height="224"/></g><g transform="translate(-2390,-686) scale(1,1)"><path fill="none" stroke="#000000" d="M 7000 3912 L 7558.0087890625 3912 L 7558.0087890625 4136 L 7000 4136 L 7000 3912 Z Z" stroke-miterlimit="10"/></g><g transform="translate(-2390,-686) scale(1,1)"><path fill="none" stroke="#000000" d="M 7000 3954 L 7558.0087890625 3954" stroke-miterlimit="10"/></g><g transform="translate(-2390,-686) scale(1,1)"><path fill="none" stroke="#000000" d="M 7000 4122 L 7558.0087890625 4122" stroke-miterlimit="10"/></g><g transform="translate(-2390,-686) scale(1,1)"><g><path fill="none" stroke="none"/><text fill="#000000" stroke="none" font-family="Arial" font-size="30px" font-style="normal" font-weight="bold" text-decoration="none" x="7230.63525390625" y="3948.5">Shader</text></g></g><g transform="translate(-2390,-686) scale(1,1)"><g><path fill="none" stroke="none"/><text fill="#000000" stroke="none" font-family="Arial" font-size="30px" font-style="normal" font-weight="normal" text-decoration="none" x="7005" y="3988.5">+pvsblob: ID3DBlob</text></g></g><g transform="translate(-2390,-686) scale(1,1)"><g><path fill="none" stroke="none"/><text fill="#000000" stroke="none" font-family="Arial" font-size="30px" font-style="normal" font-weight="normal" text-decoration="none" x="7005" y="4020.5">+ppsblob: ID3DBlob</text></g></g><g transform="translate(-2390,-686) scale(1,1)"><g><path fill="none" stroke="none"/><text fill="#000000" stroke="none" font-family="Arial" font-size="30px" font-style="normal" font-weight="normal" text-decoration="none" x="7005" y="4052.5">+pVS: ID3D11VertexShader</text></g></g><g transform="translate(-2390,-686) scale(1,1)"><g><path fill="none" stroke="none"/><text fill="#000000" stroke="none" font-family="Arial" font-size="30px" font-style="normal" font-weight="normal" text-decoration="none" x="7005" y="4084.5">+pPS: ID3D11PixelShader</text></g></g><g transform="translate(-2390,-686) scale(1,1)"><g><path fill="none" stroke="none"/><text fill="#000000" stroke="none" font-family="Arial" font-size="30px" font-style="normal" font-weight="normal" text-decoration="none" x="7005" y="4116.5">+pVertexInputLayout: ID3D11InputLayout</text></g></g><g transform="translate(-2390,-686) scale(1,1)"><path fill="none" stroke="#000000" d="M 7243 3911 L 6723 2281" stroke-miterlimit="10"/></g><g transform="translate(-2390,-686) scale(1,1)"><path fill="#FFFFFF" stroke="none" d="M 6737.19820380122 2297.8050887774807 L 6723 2281 L 6721.156653955513 2302.9226384215103"/></g><g transform="translate(-2390,-686) scale(1,1)"><path fill="none" stroke="#000000" d="M 6737.19820380122 2297.8050887774807 L 6723 2281 L 6721.156653955513 2302.9226384215103 L 6737.19820380122 2297.8050887774807" stroke-miterlimit="10"/></g><g transform="translate(-2390,-686) scale(1,1)"><rect fill="#C0C0C0" stroke="none" x="6407" y="3967" width="448" height="160" opacity="0.2"/></g><g transform="translate(-2390,-686) scale(1,1)"><rect fill="#ffffff" stroke="none" x="6400" y="3960" width="448" height="160"/></g><g transform="translate(-2390,-686) scale(1,1)"><path fill="none" stroke="#000000" d="M 6400 3960 L 6848 3960 L 6848 4120 L 6400 4120 L 6400 3960 Z Z" stroke-miterlimit="10"/></g><g transform="translate(-2390,-686) scale(1,1)"><path fill="none" stroke="#000000" d="M 6400 4002 L 6848 4002" stroke-miterlimit="10"/></g><g transform="translate(-2390,-686) scale(1,1)"><path fill="none" stroke="#000000" d="M 6400 4106 L 6848 4106" stroke-miterlimit="10"/></g><g transform="translate(-2390,-686) scale(1,1)"><g><path fill="none" stroke="none"/><text fill="#000000" stroke="none" font-family="Arial" font-size="30px" font-style="normal" font-weight="bold" text-decoration="none" x="6581.4755859375" y="3996.5">Vertex</text></g></g><g transform="translate(-2390,-686) scale(1,1)"><g><path fill="none" stroke="none"/><text fill="#000000" stroke="none" font-family="Arial" font-size="30px" font-style="normal" font-weight="normal" text-decoration="none" x="6405" y="4036.5">+position: XMFLOAT3</text></g></g><g transform="translate(-2390,-686) scale(1,1)"><g><path fill="none" stroke="none"/><text fill="#000000" stroke="none" font-family="Arial" font-size="30px" font-style="normal" font-weight="normal" text-decoration="none" x="6405" y="4068.5">+normal: XMFLOAT3</text></g></g><g transform="translate(-2390,-686) scale(1,1)"><g><path fill="none" stroke="none"/><text fill="#000000" stroke="none" font-family="Arial" font-size="30px" font-style="normal" font-weight="normal" text-decoration="none" x="6405" y="4100.5">+texCoord: XMFLOAT2</text></g></g><g transform="translate(-2390,-686) scale(1,1)"><path fill="none" stroke="#000000" d="M 6625 3959 L 6653 2281" stroke-miterlimit="10"/></g><g transform="translate(-2390,-686) scale(1,1)"><path fill="#FFFFFF" stroke="none" d="M 6661.078751275198 2301.4629855552284 L 6653 2281 L 6644.2430239607875 2301.1820556596363"/></g><g transform="translate(-2390,-686) scale(1,1)"><path fill="none" stroke="#000000" d="M 6661.078751275198 2301.4629855552284 L 6653 2281 L 6644.2430239607875 2301.1820556596363 L 6661.078751275198 2301.4629855552284" stroke-miterlimit="10"/></g><g transform="translate(-2390,-686) scale(1,1)"><rect fill="#C0C0C0" stroke="none" x="7511" y="2591" width="504.4541015625" height="123" opacity="0.2"/></g><g transform="translate(-2390,-686) scale(1,1)"><rect fill="#ffffff" stroke="none" x="7504" y="2584" width="504.4541015625" height="123"/></g><g transform="translate(-2390,-686) scale(1,1)"><path fill="none" stroke="#000000" d="M 7504 2584 L 8008.4541015625 2584 L 8008.4541015625 2707 L 7504 2707 L 7504 2584 Z Z" stroke-miterlimit="10"/></g><g transform="translate(-2390,-686) scale(1,1)"><path fill="none" stroke="#000000" d="M 7504 2626 L 8008.4541015625 2626" stroke-miterlimit="10"/></g><g transform="translate(-2390,-686) scale(1,1)"><path fill="none" stroke="#000000" d="M 7504 2698 L 8008.4541015625 2698" stroke-miterlimit="10"/></g><g transform="translate(-2390,-686) scale(1,1)"><g><path fill="none" stroke="none"/><text fill="#000000" stroke="none" font-family="Arial" font-size="30px" font-style="normal" font-weight="bold" text-decoration="none" x="7652.85302734375" y="2620.5">RasterizerState</text></g></g><g transform="translate(-2390,-686) scale(1,1)"><g><path fill="none" stroke="none"/><text fill="#000000" stroke="none" font-family="Arial" font-size="30px" font-style="normal" font-weight="normal" text-decoration="none" x="7509" y="2660.5">+state: ID3D11RasterizerState</text></g></g><g transform="translate(-2390,-686) scale(1,1)"><g><path fill="none" stroke="none"/><text fill="#000000" stroke="none" font-family="Arial" font-size="30px" font-style="normal" font-weight="normal" text-decoration="none" x="7509" y="2692.5">+desc: D3D11_RASTERIZER_DESC</text></g></g><g transform="translate(-2390,-686) scale(1,1)"><path fill="none" stroke="#000000" d="M 7637 2583 L 6929 2214" stroke-miterlimit="10"/></g><g transform="translate(-2390,-686) scale(1,1)"><path fill="#FFFFFF" stroke="none" d="M 6950.915346576816 2215.9281038400554 L 6929 2214 L 6943.133114876385 2230.859865476655"/></g><g transform="translate(-2390,-686) scale(1,1)"><path fill="none" stroke="#000000" d="M 6950.915346576816 2215.9281038400554 L 6929 2214 L 6943.133114876385 2230.859865476655 L 6950.915346576816 2215.9281038400554" stroke-miterlimit="10"/></g></g></svg>